{"asset":{"copyright":"Copyright 2020 Trimble Inc. All Rights Reserved.","generator":"SketchUp GLTF Exporter","version":"2.0"},"accessors":[{"bufferView":1,"componentType":5126,"count":6,"type":"VEC2"},{"bufferView":2,"componentType":5123,"count":6,"type":"SCALAR"},{"bufferView":3,"componentType":5126,"count":6,"type":"VEC3","max":[118.11023712158203,99.6063003540039,0.0],"min":[0.0,0.0,0.0]},{"bufferView":4,"componentType":5126,"count":6,"type":"VEC3","max":[0.0,0.0,1.0],"min":[0.0,0.0,1.0]}],"bufferViews":[{"buffer":0,"byteOffset":0,"byteLength":3112869},{"buffer":0,"byteOffset":3112872,"byteLength":48,"target":34962},{"buffer":0,"byteOffset":3112920,"byteLength":12,"target":34963},{"buffer":0,"byteOffset":3112932,"byteLength":72,"target":34962},{"buffer":0,"byteOffset":3113004,"byteLength":72,"target":34962}],"buffers":[{"byteLength":3113076,"uri":"0.bin"}],"images":[{"name":"MicaSense_DEM.PNG","bufferView":0,"mimeType":"image/png"}],"materials":[{"pbrMetallicRoughness":{"baseColorFactor":[0.7490196228027344,0.6235294342041016,0.2666666805744171,0.4000000059604645],"baseColorTexture":{"index":0}},"alphaMode":"BLEND","name":"MicaSense_DEM","doubleSided":true}],"meshes":[{"primitives":[{"attributes":{"POSITION":2,"NORMAL":3,"TEXCOORD_0":0},"indices":1,"material":0}]}],"nodes":[{"matrix":[4.619999885559082,0.0,0.0,0.0,0.0,4.619999885559082,0.0,0.0,0.0,0.0,1.0,0.0,0.0,0.0,0.0,1.0],"mesh":0,"name":"31669"},{"children":[0],"matrix":[0.02539999969303608,0.0,0.0,0.0,0.0,0.0,-0.02539999969303608,0.0,0.0,0.02539999969303608,0.0,0.0,0.0,0.0,0.0,1.0],"name":"Root Node"}],"scenes":[{"nodes":[1]}],"textures":[{"source":0}],"scene":0}