{"asset":{"copyright":"Copyright 2020 Trimble Inc. All Rights Reserved.","generator":"SketchUp GLTF Exporter","version":"2.0"},"accessors":[{"bufferView":0,"componentType":5123,"count":6,"type":"SCALAR"},{"bufferView":1,"componentType":5126,"count":6,"type":"VEC3","max":[118.11023712158203,99.6063003540039,0.0],"min":[0.0,0.0,0.0]},{"bufferView":2,"componentType":5126,"count":6,"type":"VEC3","max":[-0.0,-0.0,1.0],"min":[-0.0,-0.0,1.0]},{"bufferView":4,"componentType":5126,"count":6,"type":"VEC2"},{"bufferView":5,"componentType":5123,"count":6,"type":"SCALAR"},{"bufferView":6,"componentType":5126,"count":6,"type":"VEC3","max":[118.11023712158203,99.6063003540039,0.0],"min":[0.0,0.0,0.0]},{"bufferView":7,"componentType":5126,"count":6,"type":"VEC3","max":[0.0,0.0,-1.0],"min":[0.0,0.0,-1.0]},{"bufferView":8,"componentType":5123,"count":6,"type":"SCALAR"},{"bufferView":9,"componentType":5126,"count":6,"type":"VEC3","max":[118.11023712158203,99.6063003540039,4.724409580230713],"min":[0.0,0.0,4.724409580230713]},{"bufferView":10,"componentType":5126,"count":6,"type":"VEC3","max":[-0.0,-0.0,-1.0],"min":[-0.0,-0.0,-1.0]},{"bufferView":11,"componentType":5126,"count":6,"type":"VEC2"},{"bufferView":12,"componentType":5123,"count":6,"type":"SCALAR"},{"bufferView":13,"componentType":5126,"count":6,"type":"VEC3","max":[118.11023712158203,99.6063003540039,4.724409580230713],"min":[0.0,0.0,4.724409580230713]},{"bufferView":14,"componentType":5126,"count":6,"type":"VEC3","max":[0.0,0.0,1.0],"min":[0.0,0.0,1.0]},{"bufferView":15,"componentType":5123,"count":6,"type":"SCALAR"},{"bufferView":16,"componentType":5126,"count":6,"type":"VEC3","max":[118.11023712158203,99.6063003540039,4.724409580230713],"min":[118.11023712158203,0.0,0.0]},{"bufferView":17,"componentType":5126,"count":6,"type":"VEC3","max":[1.0,0.0,0.0],"min":[1.0,0.0,0.0]},{"bufferView":18,"componentType":5123,"count":6,"type":"SCALAR"},{"bufferView":19,"componentType":5126,"count":6,"type":"VEC3","max":[118.11023712158203,99.6063003540039,4.724409580230713],"min":[0.0,99.6063003540039,0.0]},{"bufferView":20,"componentType":5126,"count":6,"type":"VEC3","max":[0.0,1.0,0.0],"min":[0.0,1.0,0.0]},{"bufferView":21,"componentType":5123,"count":6,"type":"SCALAR"},{"bufferView":22,"componentType":5126,"count":6,"type":"VEC3","max":[0.0,99.6063003540039,4.724409580230713],"min":[0.0,0.0,0.0]},{"bufferView":23,"componentType":5126,"count":6,"type":"VEC3","max":[-1.0,0.0,0.0],"min":[-1.0,0.0,0.0]},{"bufferView":24,"componentType":5123,"count":6,"type":"SCALAR"},{"bufferView":25,"componentType":5126,"count":6,"type":"VEC3","max":[118.11023712158203,0.0,4.724409580230713],"min":[0.0,0.0,0.0]},{"bufferView":26,"componentType":5126,"count":6,"type":"VEC3","max":[0.0,-1.0,0.0],"min":[0.0,-1.0,0.0]}],"bufferViews":[{"buffer":0,"byteOffset":0,"byteLength":12,"target":34963},{"buffer":0,"byteOffset":12,"byteLength":72,"target":34962},{"buffer":0,"byteOffset":84,"byteLength":72,"target":34962},{"buffer":0,"byteOffset":156,"byteLength":3112869},{"buffer":0,"byteOffset":3113028,"byteLength":48,"target":34962},{"buffer":0,"byteOffset":3113076,"byteLength":12,"target":34963},{"buffer":0,"byteOffset":3113088,"byteLength":72,"target":34962},{"buffer":0,"byteOffset":3113160,"byteLength":72,"target":34962},{"buffer":0,"byteOffset":3113232,"byteLength":12,"target":34963},{"buffer":0,"byteOffset":3113244,"byteLength":72,"target":34962},{"buffer":0,"byteOffset":3113316,"byteLength":72,"target":34962},{"buffer":0,"byteOffset":3113388,"byteLength":48,"target":34962},{"buffer":0,"byteOffset":3113436,"byteLength":12,"target":34963},{"buffer":0,"byteOffset":3113448,"byteLength":72,"target":34962},{"buffer":0,"byteOffset":3113520,"byteLength":72,"target":34962},{"buffer":0,"byteOffset":3113592,"byteLength":12,"target":34963},{"buffer":0,"byteOffset":3113604,"byteLength":72,"target":34962},{"buffer":0,"byteOffset":3113676,"byteLength":72,"target":34962},{"buffer":0,"byteOffset":3113748,"byteLength":12,"target":34963},{"buffer":0,"byteOffset":3113760,"byteLength":72,"target":34962},{"buffer":0,"byteOffset":3113832,"byteLength":72,"target":34962},{"buffer":0,"byteOffset":3113904,"byteLength":12,"target":34963},{"buffer":0,"byteOffset":3113916,"byteLength":72,"target":34962},{"buffer":0,"byteOffset":3113988,"byteLength":72,"target":34962},{"buffer":0,"byteOffset":3114060,"byteLength":12,"target":34963},{"buffer":0,"byteOffset":3114072,"byteLength":72,"target":34962},{"buffer":0,"byteOffset":3114144,"byteLength":72,"target":34962}],"buffers":[{"byteLength":3114216,"uri":"0.bin"}],"images":[{"name":"MicaSense_DEM.PNG","bufferView":3,"mimeType":"image/png"}],"materials":[{"pbrMetallicRoughness":{"baseColorFactor":[0.800000011920929,0.0,0.0,1.0]},"name":"Color A06"},{"pbrMetallicRoughness":{"baseColorFactor":[0.7490196228027344,0.6235294342041016,0.2666666805744171,1.0],"baseColorTexture":{"index":0}},"alphaMode":"BLEND","name":"MicaSense_DEM"},{"pbrMetallicRoughness":{"baseColorFactor":[0.800000011920929,0.0,0.0,1.0]},"name":"Color A06"},{"pbrMetallicRoughness":{"baseColorFactor":[0.7490196228027344,0.6235294342041016,0.2666666805744171,1.0],"baseColorTexture":{"index":0}},"alphaMode":"BLEND","name":"MicaSense_DEM"},{"pbrMetallicRoughness":{"baseColorFactor":[0.800000011920929,0.0,0.0,1.0]},"name":"Color A06","doubleSided":true},{"pbrMetallicRoughness":{"baseColorFactor":[0.800000011920929,0.0,0.0,1.0]},"name":"Color A06","doubleSided":true},{"pbrMetallicRoughness":{"baseColorFactor":[0.800000011920929,0.0,0.0,1.0]},"name":"Color A06","doubleSided":true},{"pbrMetallicRoughness":{"baseColorFactor":[0.800000011920929,0.0,0.0,1.0]},"name":"Color A06","doubleSided":true}],"meshes":[{"primitives":[{"attributes":{"NORMAL":2,"POSITION":1},"indices":0,"material":0},{"attributes":{"POSITION":5,"NORMAL":6,"TEXCOORD_0":3},"indices":4,"material":1},{"attributes":{"NORMAL":9,"POSITION":8},"indices":7,"material":2},{"attributes":{"POSITION":12,"NORMAL":13,"TEXCOORD_0":10},"indices":11,"material":3},{"attributes":{"NORMAL":16,"POSITION":15},"indices":14,"material":4},{"attributes":{"NORMAL":19,"POSITION":18},"indices":17,"material":5},{"attributes":{"POSITION":21,"NORMAL":22},"indices":20,"material":6},{"attributes":{"POSITION":24,"NORMAL":25},"indices":23,"material":7}]}],"nodes":[{"matrix":[0.48694801330566409,0.0,0.0,0.0,0.0,0.48694801330566409,0.0,0.0,0.0,0.0,1.0,0.0,0.0,0.0,0.0,1.0],"mesh":0,"name":"31669"},{"children":[0],"matrix":[0.02539999969303608,0.0,0.0,0.0,0.0,0.0,-0.02539999969303608,0.0,0.0,0.02539999969303608,0.0,0.0,0.0,0.0,0.0,1.0],"name":"Root Node"}],"scenes":[{"nodes":[1]}],"textures":[{"source":0}],"scene":0}